<?xml version="1.0" encoding="utf-8"?>
<!-- Generator: Adobe Illustrator 25.4.1, SVG Export Plug-In . SVG Version: 6.00 Build 0)  -->
<svg version="1.1" id="GUIDE" xmlns="http://www.w3.org/2000/svg" xmlns:xlink="http://www.w3.org/1999/xlink" x="0px" y="0px"
	 width="820px" height="630.404px" viewBox="0 0 820 630.404" style="enable-background:new 0 0 820 630.404;" xml:space="preserve"
	>
<style type="text/css">
	.st0{fill:#F5F5F5;}
	.st1{opacity:0.2;}
	.st2{fill:#6E7C7C;}
	.st3{fill:#1CD0BB;}
	.st4{fill:#FEFEFE;}
	.st5{fill:#4D5858;}
</style>
<rect x="84.882" y="74.399" class="st0" width="670.26" height="436.102"/>
<g class="st1">
	<rect x="84.926" y="436.755" class="st2" width="670.762" height="1"/>
	<rect x="84.926" y="364.156" class="st2" width="670.762" height="1"/>
	<rect x="84.926" y="291.557" class="st2" width="670.762" height="1"/>
	<rect x="84.926" y="218.958" class="st2" width="670.762" height="1"/>
	<rect x="84.926" y="146.359" class="st2" width="670.762" height="1"/>
	<rect x="643.394" y="74.261" class="st2" width="1" height="435.594"/>
	<rect x="531.601" y="74.261" class="st2" width="1" height="435.594"/>
	<rect x="419.807" y="74.261" class="st2" width="1" height="435.594"/>
	<rect x="308.013" y="74.261" class="st2" width="1" height="435.594"/>
	<rect x="196.219" y="74.261" class="st2" width="1" height="435.594"/>
</g>
<circle class="st3" cx="134.612" cy="462.309" r="6.72"/>
<circle class="st3" cx="173.041" cy="467.308" r="6.72"/>
<circle class="st3" cx="188.221" cy="438.504" r="6.72"/>
<circle class="st3" cx="227.275" cy="445.378" r="6.72"/>
<circle class="st3" cx="245.396" cy="437.567" r="6.72"/>
<circle class="st3" cx="181.363" cy="461.338" r="6.72"/>
<circle class="st3" cx="258.518" cy="337.902" r="6.72"/>
<circle class="st3" cx="410.016" cy="350.931" r="6.72"/>
<circle class="st3" cx="327.681" cy="295.068" r="6.72"/>
<circle class="st3" cx="366.306" cy="468.963" r="6.72"/>
<circle class="st3" cx="372.867" cy="430.693" r="6.72"/>
<circle class="st3" cx="369.581" cy="363.641" r="6.72"/>
<circle class="st3" cx="348.368" cy="400.816" r="6.72"/>
<circle class="st3" cx="354.746" cy="348.524" r="6.72"/>
<circle class="st3" cx="358.274" cy="327.657" r="6.72"/>
<circle class="st3" cx="386.873" cy="307.039" r="6.72"/>
<circle class="st3" cx="435.819" cy="363.674" r="6.72"/>
<circle class="st3" cx="456.127" cy="342.429" r="6.72"/>
<circle class="st3" cx="464.688" cy="293.807" r="6.72"/>
<circle class="st3" cx="470.673" cy="323.001" r="6.72"/>
<circle class="st3" cx="504.4" cy="333.681" r="6.72"/>
<circle class="st3" cx="455.376" cy="320.341" r="6.72"/>
<circle class="st3" cx="492.681" cy="268.695" r="6.72"/>
<circle class="st3" cx="511.908" cy="242.526" r="6.72"/>
<circle class="st3" cx="474.733" cy="261.149" r="6.72"/>
<circle class="st3" cx="443.405" cy="272.455" r="6.72"/>
<circle class="st3" cx="571.572" cy="305.25" r="6.72"/>
<circle class="st3" cx="541.172" cy="217.918" r="6.72"/>
<circle class="st3" cx="629.838" cy="245.576" r="6.72"/>
<circle class="st3" cx="719.414" cy="112.905" r="6.72"/>
<circle class="st3" cx="616.396" cy="183.999" r="6.72"/>
<circle class="st3" cx="428.178" cy="299.723" r="6.72"/>
<circle class="st3" cx="382.882" cy="276.446" r="6.72"/>
<circle class="st3" cx="404.83" cy="281.101" r="6.72"/>
<circle class="st3" cx="386.208" cy="326.992" r="6.72"/>
<circle class="st3" cx="338.322" cy="314.355" r="6.72"/>
<circle class="st3" cx="364.925" cy="291.077" r="6.72"/>
<circle class="st3" cx="428.039" cy="323.001" r="6.72"/>
<circle class="st3" cx="398.249" cy="307.704" r="6.72"/>
<circle class="st3" cx="228.654" cy="422.943" r="6.72"/>
<circle class="st3" cx="322.695" cy="383.577" r="6.72"/>
<circle class="st3" cx="289.771" cy="394.165" r="6.72"/>
<circle class="st3" cx="222.598" cy="361.646" r="6.72"/>
<circle class="st3" cx="283.12" cy="483.951" r="6.72"/>
<circle class="st3" cx="513.239" cy="339.628" r="6.72"/>
<circle class="st3" cx="416.736" cy="344.211" r="6.72"/>
<circle class="st3" cx="390.268" cy="352.93" r="6.72"/>
<circle class="st3" cx="510.778" cy="304.845" r="6.72"/>
<circle class="st3" cx="604.819" cy="265.479" r="6.72"/>
<circle class="st3" cx="549.818" cy="259.818" r="6.72"/>
<circle class="st3" cx="698.861" cy="226.112" r="6.72"/>
<circle class="st3" cx="570.505" cy="279.771" r="6.72"/>
<circle class="st3" cx="648.915" cy="174.757" r="6.72"/>
<circle class="st3" cx="604.419" cy="167.585" r="6.72"/>
<circle class="st3" cx="677.514" cy="106.85" r="6.72"/>
<g>
	<path class="st5" d="M46.298,429.992l-2.269,0.631l-0.468-1.801l3.403-1.08h1.531v12.693h-2.197V429.992z"/>
	<path class="st5" d="M51.247,434.17v-0.036c0-3.601,2.197-6.519,5.51-6.519c3.295,0,5.474,2.881,5.474,6.482v0.036
		c0,3.601-2.197,6.518-5.51,6.518S51.247,437.771,51.247,434.17z M59.944,434.17v-0.036c0-2.485-1.279-4.52-3.223-4.52
		c-1.945,0-3.187,1.98-3.187,4.483v0.036c0,2.484,1.26,4.519,3.223,4.519C58.719,438.652,59.944,436.637,59.944,434.17z"/>
	<path class="st5" d="M64.279,434.17v-0.036c0-3.601,2.197-6.519,5.51-6.519c3.295,0,5.474,2.881,5.474,6.482v0.036
		c0,3.601-2.197,6.518-5.51,6.518S64.279,437.771,64.279,434.17z M72.975,434.17v-0.036c0-2.485-1.278-4.52-3.223-4.52
		c-1.945,0-3.187,1.98-3.187,4.483v0.036c0,2.484,1.26,4.519,3.223,4.519C71.751,438.652,72.975,436.637,72.975,434.17z"/>
</g>
<g>
	<path class="st5" d="M76.85,536.58v-0.036c0-3.602,2.197-6.519,5.51-6.519c3.295,0,5.474,2.881,5.474,6.482v0.036
		c0,3.601-2.197,6.518-5.51,6.518S76.85,540.181,76.85,536.58z M85.547,536.58v-0.036c0-2.485-1.279-4.52-3.223-4.52
		c-1.945,0-3.187,1.98-3.187,4.483v0.036c0,2.484,1.26,4.519,3.223,4.519C84.322,541.062,85.547,539.046,85.547,536.58z"/>
</g>
<g>
	<path class="st5" d="M192.686,532.402l-2.269,0.63l-0.468-1.8l3.403-1.081h1.53v12.694h-2.196V532.402z"/>
	<path class="st5" d="M197.635,536.58v-0.036c0-3.602,2.197-6.519,5.51-6.519c3.295,0,5.474,2.881,5.474,6.482v0.036
		c0,3.601-2.197,6.518-5.51,6.518S197.635,540.181,197.635,536.58z M206.332,536.58v-0.036c0-2.485-1.278-4.52-3.223-4.52
		c-1.945,0-3.187,1.98-3.187,4.483v0.036c0,2.484,1.26,4.519,3.223,4.519C205.107,541.062,206.332,539.046,206.332,536.58z"/>
</g>
<g>
	<path class="st5" d="M296.637,541.099l4.339-3.69c1.729-1.477,2.358-2.269,2.358-3.403c0-1.242-0.882-1.963-2.035-1.963
		s-1.944,0.631-2.898,1.891l-1.584-1.242c1.206-1.675,2.395-2.629,4.645-2.629c2.467,0,4.159,1.513,4.159,3.764v0.035
		c0,1.981-1.044,3.062-3.277,4.88l-2.593,2.161h5.996v1.944h-9.111V541.099z"/>
	<path class="st5" d="M307.814,536.58v-0.036c0-3.602,2.197-6.519,5.51-6.519c3.295,0,5.474,2.881,5.474,6.482v0.036
		c0,3.601-2.197,6.518-5.51,6.518S307.814,540.181,307.814,536.58z M316.511,536.58v-0.036c0-2.485-1.278-4.52-3.223-4.52
		c-1.945,0-3.187,1.98-3.187,4.483v0.036c0,2.484,1.26,4.519,3.223,4.519C315.287,541.062,316.511,539.046,316.511,536.58z"/>
</g>
<g>
	<path class="st5" d="M409.729,540.847l1.549-1.44c0.9,1.062,1.908,1.656,3.312,1.656c1.242,0,2.179-0.756,2.179-1.908v-0.036
		c0-1.242-1.134-1.944-2.898-1.944h-1.026l-0.36-1.387l3.403-3.619h-5.456v-1.926h8.337v1.656l-3.512,3.601
		c1.909,0.234,3.709,1.207,3.709,3.529v0.036c0,2.322-1.782,3.997-4.411,3.997C412.358,543.062,410.792,542.144,409.729,540.847z"/>
	<path class="st5" d="M421.105,536.58v-0.036c0-3.602,2.197-6.519,5.51-6.519c3.295,0,5.474,2.881,5.474,6.482v0.036
		c0,3.601-2.196,6.518-5.51,6.518C423.267,543.062,421.105,540.181,421.105,536.58z M429.802,536.58v-0.036
		c0-2.485-1.278-4.52-3.223-4.52s-3.187,1.98-3.187,4.483v0.036c0,2.484,1.26,4.519,3.223,4.519S429.802,539.046,429.802,536.58z"/>
</g>
<g>
	<path class="st5" d="M523.042,540.019h-6.355l-0.415-1.584l7.005-8.283h1.891v8.049h1.8v1.818h-1.8v2.827h-2.125V540.019z
		 M523.042,538.2v-4.987L518.9,538.2H523.042z"/>
	<path class="st5" d="M528.926,536.58v-0.036c0-3.602,2.197-6.519,5.51-6.519c3.295,0,5.474,2.881,5.474,6.482v0.036
		c0,3.601-2.196,6.518-5.51,6.518C531.087,543.062,528.926,540.181,528.926,536.58z M537.622,536.58v-0.036
		c0-2.485-1.278-4.52-3.223-4.52s-3.187,1.98-3.187,4.483v0.036c0,2.484,1.26,4.519,3.223,4.519S537.622,539.046,537.622,536.58z"/>
</g>
<g>
	<path class="st5" d="M633.224,541.135l1.368-1.603c1.009,0.937,2.07,1.513,3.241,1.513c1.513,0,2.503-0.864,2.503-2.179v-0.036
		c0-1.278-1.081-2.089-2.611-2.089c-0.9,0-1.675,0.253-2.322,0.559l-1.333-0.882l0.36-6.176h7.544v1.962h-5.636l-0.197,2.953
		c0.594-0.216,1.152-0.36,1.998-0.36c2.449,0,4.394,1.297,4.394,3.961v0.036c0,2.575-1.891,4.268-4.682,4.268
		C635.924,543.062,634.412,542.287,633.224,541.135z"/>
	<path class="st5" d="M644.617,536.58v-0.036c0-3.602,2.197-6.519,5.51-6.519c3.295,0,5.474,2.881,5.474,6.482v0.036
		c0,3.601-2.196,6.518-5.51,6.518C646.778,543.062,644.617,540.181,644.617,536.58z M653.313,536.58v-0.036
		c0-2.485-1.278-4.52-3.223-4.52s-3.187,1.98-3.187,4.483v0.036c0,2.484,1.26,4.519,3.223,4.519S653.313,539.046,653.313,536.58z"/>
</g>
<g>
	<path class="st5" d="M736.894,541.729c-0.954-0.955-1.53-2.269-1.53-4.808v-0.036c0-3.854,1.837-6.86,5.401-6.86
		c1.639,0,2.755,0.522,3.854,1.404l-1.188,1.711c-0.882-0.685-1.62-1.099-2.736-1.099c-2.197,0-2.989,2.287-3.025,4.016
		c0.738-0.774,1.675-1.278,3.025-1.278c2.431,0,4.393,1.44,4.393,3.961v0.036c0,2.503-2.034,4.285-4.681,4.285
		C738.856,543.062,737.74,542.575,736.894,541.729z M742.872,538.866v-0.036c0-1.26-1.009-2.196-2.575-2.196
		s-2.557,1.008-2.557,2.215v0.036c0,1.278,1.044,2.25,2.61,2.25S742.872,540.163,742.872,538.866z"/>
	<path class="st5" d="M747.171,536.58v-0.036c0-3.602,2.197-6.519,5.51-6.519c3.295,0,5.474,2.881,5.474,6.482v0.036
		c0,3.601-2.196,6.518-5.51,6.518C749.332,543.062,747.171,540.181,747.171,536.58z M755.867,536.58v-0.036
		c0-2.485-1.278-4.52-3.223-4.52s-3.187,1.98-3.187,4.483v0.036c0,2.484,1.26,4.519,3.223,4.519S755.867,539.046,755.867,536.58z"/>
</g>
<g>
	<path class="st5" d="M40.069,368.896l4.339-3.691c1.729-1.477,2.358-2.269,2.358-3.403c0-1.242-0.882-1.962-2.034-1.962
		s-1.945,0.63-2.899,1.891l-1.584-1.243c1.206-1.674,2.395-2.628,4.645-2.628c2.467,0,4.16,1.512,4.16,3.763v0.036
		c0,1.981-1.044,3.061-3.277,4.879l-2.593,2.161h5.996v1.944h-9.111V368.896z"/>
	<path class="st5" d="M51.247,364.377v-0.036c0-3.601,2.197-6.518,5.51-6.518c3.295,0,5.474,2.881,5.474,6.482v0.036
		c0,3.601-2.197,6.518-5.51,6.518S51.247,367.978,51.247,364.377z M59.944,364.377v-0.036c0-2.485-1.279-4.52-3.223-4.52
		c-1.945,0-3.187,1.98-3.187,4.483v0.036c0,2.484,1.26,4.519,3.223,4.519C58.719,368.86,59.944,366.844,59.944,364.377z"/>
	<path class="st5" d="M64.279,364.377v-0.036c0-3.601,2.197-6.518,5.51-6.518c3.295,0,5.474,2.881,5.474,6.482v0.036
		c0,3.601-2.197,6.518-5.51,6.518S64.279,367.978,64.279,364.377z M72.976,364.377v-0.036c0-2.485-1.279-4.52-3.223-4.52
		c-1.945,0-3.187,1.98-3.187,4.483v0.036c0,2.484,1.26,4.519,3.223,4.519C71.751,368.86,72.976,366.844,72.976,364.377z"/>
</g>
<g>
	<path class="st5" d="M39.871,293.849l1.548-1.44c0.9,1.062,1.909,1.656,3.313,1.656c1.242,0,2.179-0.756,2.179-1.908v-0.036
		c0-1.243-1.134-1.945-2.899-1.945h-1.026l-0.36-1.386l3.403-3.619h-5.456v-1.926h8.336v1.656l-3.511,3.601
		c1.909,0.234,3.709,1.207,3.709,3.529v0.036c0,2.323-1.783,3.997-4.412,3.997C42.5,296.063,40.933,295.145,39.871,293.849z"/>
	<path class="st5" d="M51.247,289.582v-0.036c0-3.601,2.197-6.518,5.51-6.518c3.295,0,5.474,2.881,5.474,6.482v0.036
		c0,3.601-2.197,6.518-5.51,6.518S51.247,293.182,51.247,289.582z M59.944,289.582v-0.036c0-2.485-1.279-4.52-3.223-4.52
		c-1.945,0-3.187,1.98-3.187,4.483v0.036c0,2.484,1.26,4.519,3.223,4.519C58.719,294.064,59.944,292.048,59.944,289.582z"/>
	<path class="st5" d="M64.279,289.582v-0.036c0-3.601,2.197-6.518,5.51-6.518c3.295,0,5.474,2.881,5.474,6.482v0.036
		c0,3.601-2.197,6.518-5.51,6.518S64.279,293.182,64.279,289.582z M72.975,289.582v-0.036c0-2.485-1.278-4.52-3.223-4.52
		c-1.945,0-3.187,1.98-3.187,4.483v0.036c0,2.484,1.26,4.519,3.223,4.519C71.751,294.064,72.975,292.048,72.975,289.582z"/>
</g>
<g>
	<path class="st5" d="M45.363,222.233h-6.355l-0.414-1.584l7.004-8.283h1.891v8.048h1.8v1.819h-1.8v2.827h-2.125V222.233z
		 M45.363,220.415v-4.987l-4.141,4.987H45.363z"/>
	<path class="st5" d="M51.247,218.794v-0.036c0-3.601,2.197-6.518,5.51-6.518c3.295,0,5.474,2.881,5.474,6.482v0.036
		c0,3.601-2.197,6.518-5.51,6.518S51.247,222.395,51.247,218.794z M59.944,218.794v-0.036c0-2.485-1.279-4.52-3.223-4.52
		c-1.945,0-3.187,1.98-3.187,4.483v0.036c0,2.484,1.26,4.519,3.223,4.519C58.719,223.277,59.944,221.261,59.944,218.794z"/>
	<path class="st5" d="M64.279,218.794v-0.036c0-3.601,2.197-6.518,5.51-6.518c3.295,0,5.474,2.881,5.474,6.482v0.036
		c0,3.601-2.197,6.518-5.51,6.518S64.279,222.395,64.279,218.794z M72.975,218.794v-0.036c0-2.485-1.278-4.52-3.223-4.52
		c-1.945,0-3.187,1.98-3.187,4.483v0.036c0,2.484,1.26,4.519,3.223,4.519C71.751,223.277,72.975,221.261,72.975,218.794z"/>
</g>
<g>
	<path class="st5" d="M45.363,150.405h-6.355l-0.414-1.584l7.004-8.283h1.891v8.048h1.8v1.819h-1.8v2.827h-2.125V150.405z
		 M45.363,148.586v-4.987l-4.141,4.987H45.363z"/>
	<path class="st5" d="M51.247,146.966v-0.036c0-3.601,2.197-6.518,5.51-6.518c3.295,0,5.474,2.881,5.474,6.482v0.036
		c0,3.601-2.197,6.518-5.51,6.518S51.247,150.566,51.247,146.966z M59.944,146.966v-0.036c0-2.485-1.279-4.52-3.223-4.52
		c-1.945,0-3.187,1.98-3.187,4.483v0.036c0,2.484,1.26,4.519,3.223,4.519C58.719,151.449,59.944,149.432,59.944,146.966z"/>
	<path class="st5" d="M64.279,146.966v-0.036c0-3.601,2.197-6.518,5.51-6.518c3.295,0,5.474,2.881,5.474,6.482v0.036
		c0,3.601-2.197,6.518-5.51,6.518S64.279,150.566,64.279,146.966z M72.975,146.966v-0.036c0-2.485-1.278-4.52-3.223-4.52
		c-1.945,0-3.187,1.98-3.187,4.483v0.036c0,2.484,1.26,4.519,3.223,4.519C71.751,151.449,72.975,149.432,72.975,146.966z"/>
</g>
</svg>
